<!DOCTYPE svg PUBLIC "-//W3C//DTD SVG 1.1//EN" "http://www.w3.org/Graphics/SVG/1.1/DTD/svg11.dtd">
<!-- Uploaded to: SVG Repo, www.svgrepo.com, Transformed by: SVG Repo Mixer Tools -->
<svg fill="#000000" height="64px" width="64px" version="1.1" id="Capa_1" xmlns="http://www.w3.org/2000/svg" xmlns:xlink="http://www.w3.org/1999/xlink" viewBox="0 0 206.559 206.559" xml:space="preserve">
<g id="SVGRepo_bgCarrier" stroke-width="0"/>
<g id="SVGRepo_tracerCarrier" stroke-linecap="round" stroke-linejoin="round"/>
<g id="SVGRepo_iconCarrier"> <path d="M0,103.279c0,56.948,46.331,103.279,103.279,103.279s103.279-46.331,103.279-103.279S160.228,0,103.279,0 S0,46.331,0,103.279z M170,103.279c0,36.79-29.931,66.721-66.721,66.721c-11.765,0-22.821-3.072-32.429-8.439L161.56,70.85 C166.927,80.458,170,91.514,170,103.279z M103.279,36.559c11.765,0,22.821,3.072,32.429,8.439l-90.709,90.711 c-5.368-9.608-8.44-20.664-8.44-32.43C36.559,66.489,66.489,36.559,103.279,36.559z"/> </g>
</svg>